# xmcd
#
# Track frame offsets: 
#        150
#        16537
#        32430
#        46432
#        65835
#        82120
#        103397
#        121935
#        137260
#        148755
#        166800
#        181665
#        197737
#        213080
#
# Disc length: 3014 seconds
#
# Revision: 5
# Processed by: cddbd v1.5.2PL0 Copyright (c) Steve Scherf et al.
# Submitted via: ExactAudioCopy v0.95b4
#
DISCID=b90bc40e
DTITLE=Natalia - This Time
DYEAR=2004
DGENRE=Pop
TTITLE0=Beautiful Now
TTITLE1=I've Only Begun To Fight
TTITLE2=Do You Wanna Funk
TTITLE3=Never Leave You
TTITLE4=This Time
TTITLE5=For Once In My Life
TTITLE6=I Want You Back
TTITLE7=Never Never
TTITLE8=Orange Coloured Sky
TTITLE9=We're All Alone
TTITLE10=Too Late
TTITLE11=The Rose
TTITLE12=Without You
TTITLE13=Higher Than The Sun
EXTD=
EXTT0=
EXTT1=
EXTT2=
EXTT3=
EXTT4=
EXTT5=
EXTT6=
EXTT7=
EXTT8=
EXTT9=
EXTT10=
EXTT11=
EXTT12=
EXTT13=
PLAYORDER=
